<?xml version="1.0" encoding="UTF-8" standalone="no"?><!DOCTYPE svg PUBLIC "-//W3C//DTD SVG 1.1//EN" "http://www.w3.org/Graphics/SVG/1.1/DTD/svg11.dtd"><svg width="100%" height="100%" viewBox="0 0 509 509" version="1.1" xmlns="http://www.w3.org/2000/svg" xmlns:xlink="http://www.w3.org/1999/xlink" xml:space="preserve" xmlns:serif="http://www.serif.com/" style="fill-rule:evenodd;clip-rule:evenodd;stroke-linecap:round;stroke-linejoin:round;stroke-miterlimit:1.5;"><path d="M384.081,23.859c0,-1.435 -1.165,-2.601 -2.6,-2.601l-254.862,0c-1.435,0 -2.6,1.166 -2.6,2.601l-0,389.664c-0,1.435 1.165,2.601 2.6,2.601l254.862,-0c1.435,-0 2.6,-1.166 2.6,-2.601l0,-389.664Z" style="fill:#ffc200;stroke:#000;stroke-width:3.13px;"/><path d="M384.081,447.952c0,-1.436 -1.165,-2.601 -2.6,-2.601l-254.862,-0c-1.435,-0 -2.6,1.165 -2.6,2.601l-0,389.664c-0,1.435 1.165,2.6 2.6,2.6l254.862,0c1.435,0 2.6,-1.165 2.6,-2.6l0,-389.664Z" style="fill:#ff6000;stroke:#000;stroke-width:3.13px;"/></svg>